<?xml version="1.0" encoding="utf-8"?>
<!-- Generator: Adobe Illustrator 21.0.0, SVG Export Plug-In . SVG Version: 6.00 Build 0)  -->
<svg version="1.1" id="Слой_1" xmlns="http://www.w3.org/2000/svg" xmlns:xlink="http://www.w3.org/1999/xlink" x="0px" y="0px"
	 viewBox="0 0 981 250" style="enable-background:new 0 0 981 250;" xml:space="preserve">
<g>
	<path d="M217.8,60l67,143.7h-15.5l-22.6-47.3h-61.9l-22.4,47.3h-16L214.3,60H217.8z M216,90.5l-24.6,52h49.1L216,90.5z"/>
	<path d="M445.6,84.1l-11.1,10.5c-8-7.9-16.8-13.9-26.3-17.9c-9.5-4.1-18.8-6.1-27.9-6.1c-11.3,0-22,2.8-32.2,8.3
		c-10.2,5.5-18.1,13-23.7,22.5c-5.6,9.5-8.4,19.5-8.4,30c0,10.8,2.9,21.1,8.7,30.8c5.8,9.7,13.8,17.4,24,22.9
		c10.2,5.6,21.4,8.3,33.6,8.3c14.8,0,27.3-4.2,37.5-12.5c10.2-8.3,16.3-19.1,18.2-32.4h-45.8v-13.9h61.9
		c-0.1,22.2-6.7,39.8-19.8,52.9c-13.1,13.1-30.5,19.6-52.4,19.6c-26.6,0-47.6-9-63.1-27.1c-11.9-13.9-17.9-30-17.9-48.3
		c0-13.6,3.4-26.3,10.3-38s16.2-20.9,28.1-27.5c11.9-6.6,25.4-9.9,40.4-9.9c12.2,0,23.6,2.2,34.4,6.6S435.4,74.4,445.6,84.1z"/>
	<path d="M482.3,60h28.6c16,0,26.8,0.7,32.4,2c8.5,2,15.5,6.1,20.8,12.6c5.3,6.4,8,14.3,8,23.7c0,7.8-1.8,14.7-5.5,20.6
		c-3.7,5.9-8.9,10.4-15.8,13.4c-6.8,3-16.3,4.6-28.3,4.6l51.7,66.7h-17.8l-51.7-66.7h-8.1v66.7h-14.4V60z M496.6,74v48.8l24.7,0.2
		c9.6,0,16.7-0.9,21.3-2.7c4.6-1.8,8.2-4.7,10.8-8.7c2.6-4,3.9-8.5,3.9-13.4c0-4.8-1.3-9.2-3.9-13.1c-2.6-3.9-6-6.8-10.3-8.4
		c-4.2-1.7-11.3-2.5-21.1-2.5H496.6z"/>
	<path d="M600.8,60h14.4v143.7h-14.4V60z"/>
	<path d="M648.2,60h82.3V74h-68v45h67.4v14.1h-67.4v56.4h67.4v14.1h-81.7V60z"/>
	<path d="M744,60h16.5l36.8,59.2L833.4,60H850l-45.5,75v68.7h-14.2V135L744,60z"/>
	<path d="M873.8,60h82.3V74h-68v45h67.4v14.1h-67.4v56.4h67.4v14.1h-81.7V60z"/>
</g>
<g>
	<g>
		<g>
			<g>
				<path d="M68.2,22.3c-23.9,0-43.4,19.5-43.4,43.4S44.3,109,68.2,109c23.9,0,43.4-19.5,43.4-43.4S92.2,22.3,68.2,22.3z
					 M68.2,102.4c-20.2,0-36.7-16.5-36.7-36.7c0-20.2,16.5-36.7,36.7-36.7c20.2,0,36.7,16.5,36.7,36.7S88.5,102.4,68.2,102.4z"/>
				<path d="M68.2,37.3c-15.6,0-28.4,12.7-28.4,28.4C39.9,81.3,52.6,94,68.2,94c15.6,0,28.4-12.7,28.4-28.4
					C96.6,50,83.9,37.3,68.2,37.3z M68.1,52.6c-7.1,0-12.9,5.8-12.9,12.9h-8.3c0-11.7,9.5-21.2,21.2-21.2L68.1,52.6L68.1,52.6z"/>
			</g>
		</g>
	</g>
	<g>
		<polygon points="68.8,229.7 117.3,181.2 117.3,164 68.8,212.9 		"/>
		<polygon points="68.8,195.8 117.3,147.3 117.3,130.2 68.8,179 		"/>
		<polygon points="68.8,145.2 68.8,162 117.3,113.5 117.3,96.4 		"/>
		<polygon points="20.2,164 20.2,181.2 68.7,229.7 68.7,212.9 		"/>
		<polygon points="68.7,229.7 68.7,230 68.8,229.8 68.8,230 68.8,229.7 68.8,229.7 		"/>
		<polygon points="20.2,130.2 20.2,147.3 68.7,195.8 68.7,179 		"/>
		<polygon points="68.7,195.8 68.7,196.2 68.8,196 68.8,196.2 68.8,195.8 68.8,195.9 		"/>
		<polygon points="68.7,162 68.7,162.3 68.8,162.1 68.8,162.3 68.8,162 68.8,162.1 		"/>
		<polygon points="20.2,96.4 20.2,113.5 68.7,162 68.7,145.2 		"/>
	</g>
</g>
</svg>
